<?xml version="1.0" encoding="UTF-8" standalone="no"?>
<!-- Created with Inkscape (http://www.inkscape.org/) -->

<svg
   width="160.00005mm"
   height="160.00005mm"
   viewBox="0 0 160.00005 160.00005"
   version="1.1"
   id="svg1"
   inkscape:version="1.4 (1:1.4+202410161351+e7c3feb100)"
   sodipodi:docname="color-blending-original-redstone.svg"
   xmlns:inkscape="http://www.inkscape.org/namespaces/inkscape"
   xmlns:sodipodi="http://sodipodi.sourceforge.net/DTD/sodipodi-0.dtd"
   xmlns="http://www.w3.org/2000/svg"
   xmlns:svg="http://www.w3.org/2000/svg">
  <sodipodi:namedview
     id="namedview1"
     pagecolor="#ffffff"
     bordercolor="#666666"
     borderopacity="1.0"
     inkscape:showpageshadow="2"
     inkscape:pageopacity="0.0"
     inkscape:pagecheckerboard="0"
     inkscape:deskcolor="#d1d1d1"
     inkscape:document-units="mm"
     inkscape:zoom="1.2132366"
     inkscape:cx="245.21185"
     inkscape:cy="345.35719"
     inkscape:window-width="2560"
     inkscape:window-height="1393"
     inkscape:window-x="1920"
     inkscape:window-y="22"
     inkscape:window-maximized="1"
     inkscape:current-layer="layer1" />
  <defs
     id="defs1" />
  <g
     inkscape:label="Layer 1"
     inkscape:groupmode="layer"
     id="layer1"
     transform="translate(-19.827187,-27.965857)">
    <path
       id="5x_20a"
       style="fill:#666666;stroke-width:2.4"
       d="M 29.827369,27.965857 H 169.82759 c 5.53995,0 9.99991,4.45996 9.99991,9.99991 V 177.96599 c 0,5.53995 -4.45996,9.99991 -9.99991,9.99991 H 29.827369 c -5.53995,0 -9.99991,-4.45996 -9.99991,-9.99991 V 37.965767 c 0,-5.53995 4.45996,-9.99991 9.99991,-9.99991 z"
       inkscape:label="5x_20a" />
    <path
       id="1a_4w"
       style="display:inline;fill:#b3b3b3;fill-opacity:1;stroke:none;stroke-width:2.86176"
       d="m 119.82729,27.965857 v 9.99991 h 9.9999 v 9.9999 h -9.9999 -9.99991 -9.999901 v -9.9999 -9.99991 h 9.999901 z m -30.000238,0 v 9.99991 9.9999 h -9.9999 -9.99991 -9.99991 v -9.9999 h 9.99991 9.99991 v -9.99991 z m 70.000378,9.99991 v 9.9999 h -10.00042 -9.99991 v -9.9999 h 9.99991 z m 9.99991,19.99981 v 10.00042 9.99991 h -9.99991 -10.00042 v -9.99991 h 10.00042 v -10.00042 z m -90.000188,10.00042 v 9.99991 h -9.99991 v -9.99991 z m -19.99982,0 v 9.99991 h -9.9999 -10.00043 -9.9999 v -9.99991 h 9.9999 10.00043 z M 179.82724,87.965818 v 9.9999 h -9.9999 -9.99991 v -9.9999 h 9.99991 z m -129.999808,0 v 9.9999 h -10.00043 -9.9999 v -9.9999 h 9.9999 z M 139.8271,107.96563 v 9.99991 h -9.99991 v -9.99991 z m -59.999948,0 v 9.99991 h -9.99991 -9.99991 -9.9999 -10.00043 v 10.00042 h -9.9999 v -10.00042 h -9.99991 v -9.99991 h 9.99991 9.9999 10.00043 9.9999 9.99991 z m 80.000278,20.00033 v 9.9999 h -10.00042 v -9.9999 z m -30.00024,0 v 9.9999 h -9.9999 -9.99991 v -9.9999 h 9.99991 z m -69.999858,0 v 9.9999 h -9.9999 v -9.9999 z m 40.000147,9.9999 v 9.99991 H 89.827052 v -9.99991 z m -60.000477,0 v 9.99991 h -9.9999 v -9.99991 z m 130.000338,19.99982 v 9.9999 h -9.99991 v -9.9999 z m -130.000338,0 v 9.9999 h -9.9999 -9.99991 v -9.9999 h 9.99991 z m 30.00024,9.9999 v 10.00043 h -9.99991 v -10.00043 z m 59.999948,10.00043 v 9.9999 h -9.9999 -9.99991 v -9.9999 h 9.99991 z"
       inkscape:label="1a_4w" />
    <path
       id="2a_3w"
       style="display:inline;fill:#999999;fill-opacity:1;stroke:none;stroke-width:2.86176"
       inkscape:label="2a_3w"
       d="m 169.82733,27.965857 c 5.53995,0 9.9999,4.459956 9.9999,9.999906 v 9.999907 9.999906 10.000423 9.999907 h -9.9999 V 67.965999 57.965576 47.96567 h -9.99991 v -9.999907 h 9.99991 z m -40.00014,0 v 9.999906 h -9.99991 v -9.999906 z m -50.000048,0 v 9.999906 h -9.99991 v -9.999906 z m -50.00005,0 v 9.999906 h -9.99991 c 0,-5.53995 4.45996,-9.999906 9.99991,-9.999906 z m 0,9.999906 h 9.9999 v 9.999907 h -9.9999 z m 0,9.999907 v 9.999906 10.000423 h -9.99991 V 57.965576 47.96567 Z m 50.00005,0 v 9.999906 h -9.99991 -9.99991 V 47.96567 h 9.99991 z m 80.000278,9.999906 V 67.965999 H 149.827 139.82709 V 57.965576 h 9.99991 z m 0,20.00033 v 9.999906 9.999907 h 9.99991 9.9999 v 9.999911 9.9999 10.00042 9.99991 h -9.9999 v 9.99991 H 159.82742 149.827 v -9.99991 h 10.00042 v -9.99991 h 9.99991 v -10.00042 -9.9999 H 159.82742 149.827 v -9.999911 -9.999907 h -9.99991 v -9.999906 h 9.99991 z m 9.99991,69.999864 h 9.9999 v 9.9999 9.99991 10.00042 h -9.9999 -9.99991 -10.00042 v -10.00042 h 10.00042 9.99991 v -9.99991 z M 99.827467,77.965906 v 9.999906 H 89.827042 v -9.999906 z m -10.000425,9.999906 v 9.999907 h -9.9999 v -9.999907 z m -59.99995,-9.999906 v 9.999906 h -9.99991 v -9.999906 z m 9.9999,19.999813 v 9.999911 h -9.9999 -9.99991 v -9.999911 h 9.99991 z m 80.000288,9.999911 v 9.9999 h -9.99991 v -9.9999 z m -90.000188,9.9999 v 10.00042 h 9.9999 10.00043 v 9.99991 h -10.00043 -9.9999 -9.99991 v -9.99991 -10.00042 z m 109.999998,20.00033 v 9.99991 h -9.9999 -9.99991 v -9.99991 h 9.99991 z m -29.99972,0 v 9.99991 h -9.999903 v -9.99991 z m -80.000278,9.99991 v 9.9999 h -9.99991 v -9.9999 z m 90.000188,9.9999 v 9.99991 h -9.99991 v -9.99991 z m -19.999813,9.99991 V 177.966 h 9.999903 v 9.99991 H 69.827232 V 177.966 h 9.99991 v -10.00042 h 9.9999 z m -40.000145,0 V 177.966 h -9.9999 v -10.00042 z m -30.00023,0 V 177.966 h 9.9999 v 9.99991 h -9.9999 c -5.53995,0 -9.99991,-4.45996 -9.99991,-9.99991 v -10.00042 z" />
    <path
       id="5a"
       style="display:inline;fill:#666666;fill-opacity:1;stroke:none;stroke-width:2.86176"
       inkscape:label="5a"
       d="m 169.82733,27.965857 v 9.999906 h -9.99991 -10.00042 -9.99991 -9.9999 v -9.999906 h 30.00023 z m -100.000098,0 v 9.999906 h -9.99991 -9.9999 -10.00043 -9.9999 v -9.999906 z m -40.00014,9.999906 v 9.999907 h -9.99991 v -9.999907 z m 70.000375,0 V 47.96567 H 89.827042 V 37.965763 Z M 89.827042,47.96567 v 9.999906 h -9.9999 V 47.96567 Z m -9.9999,9.999906 v 10.000423 h -9.99991 V 57.965576 Z m 0,10.000423 h 9.9999 v 9.999907 h -9.9999 z M 159.82742,47.96567 v 9.999906 H 149.827 V 47.96567 Z m -40.00014,0 v 9.999906 h -9.99991 V 47.96567 Z m -80.000288,9.999906 v 10.000423 h -9.9999 V 57.965576 Z M 149.827,67.965999 v 9.999907 h -9.99991 v -9.999907 z m -19.99981,0 v 9.999907 h -9.99991 v -9.999907 z m 50.00004,9.999907 v 9.999906 h -9.9999 -9.99991 v -9.999906 h 9.99991 z m -69.99986,0 v 9.999906 h -9.999903 v -9.999906 z m -59.999948,0 v 9.999906 h -10.00043 v -9.999906 z m 9.9999,19.999813 v 9.999911 h -9.9999 -10.00043 v -9.999911 h 10.00043 z m 69.999868,9.999911 v 9.9999 h -9.99991 v -9.9999 z m 19.99981,9.9999 v 10.00042 9.99991 h -9.99991 v -9.99991 -10.00042 z m -89.999678,0 v 10.00042 h -9.9999 -10.00043 v -10.00042 h 10.00043 z m 110.000008,30.00024 v 9.9999 h -9.99991 -10.00042 -9.99991 v -9.9999 h 9.99991 10.00042 z m -50.00005,0 v 9.9999 h -9.99991 v 9.99991 h 9.99991 9.99991 V 177.966 h -9.99991 -9.99991 -9.999903 V 167.96558 H 89.827042 v -9.99991 h 10.000425 v -9.9999 h 9.999903 z m -80.000288,0 v 9.9999 h -9.9999 v -9.9999 z m 10.00043,19.99981 V 177.966 h 9.9999 9.99991 v 9.99991 H 39.826992 V 177.966 h -9.9999 v -10.00042 h 9.9999 z M 179.82723,177.966 c 0,5.53995 -4.45995,9.99991 -9.9999,9.99991 h -9.99991 -20.00033 V 177.966 h 9.99991 10.00042 9.99991 z" />
    <path
       id="2a_3k"
       style="display:inline;fill:#4d4d4d;fill-opacity:1;stroke:none;stroke-width:2.86176"
       d="m 99.827479,27.965857 v 9.99991 H 89.827052 v -9.99991 z m 39.999621,9.99991 v 9.9999 h -9.99991 v -9.9999 z m -9.99991,9.9999 v 9.99991 h 9.99991 v 10.00042 9.99991 9.999911 h -9.99991 v -9.999911 -9.99991 h -9.9999 v 9.99991 h -9.99991 -9.999901 -10.000427 v -9.99991 h 10.000427 9.999901 v -10.00042 h 9.99991 v -9.99991 z m -19.99981,9.99991 H 99.827479 89.827052 v -9.99991 h 10.000427 9.999901 z m -20.000328,0 v 10.00042 h -9.9999 v -10.00042 z m 0,20.00033 v 9.999911 h -9.9999 v -9.999911 z m 0,9.999911 h 10.000427 v 9.9999 h 9.999901 9.99991 9.9999 9.99991 9.99991 v 9.999912 9.99991 h -9.99991 v -9.99991 h -9.99991 -9.9999 -9.99991 v 9.99991 h -9.999901 v -9.99991 h -10.000427 -9.9999 -9.99991 -9.99991 v -9.999912 h 9.99991 9.99991 9.9999 z m -29.99972,9.9999 h -9.9999 v -9.9999 -9.999911 h 9.9999 v 9.999911 z m 0,-19.999811 v -9.99991 h -9.9999 -10.00043 v -10.00042 h 10.00043 9.9999 9.99991 v 10.00042 9.99991 z m -20.00033,-20.00033 h -9.9999 v -9.99991 h 9.9999 z m 0,-9.99991 v -9.9999 h 10.00043 9.9999 v 9.9999 h -9.9999 z m 70.000378,69.999873 h 9.99991 9.9999 9.99991 v 10.00042 h -9.99991 -9.9999 -9.99991 z m 0,10.00042 v 9.9999 H 99.827479 89.827052 v 9.99991 h -9.9999 -9.99991 v -9.99991 h -9.99991 v -9.9999 -10.00042 h 9.99991 v 10.00042 h 9.99991 9.9999 10.000427 z m 0,9.9999 h 9.99991 v 9.99991 h -9.99991 z m 9.99991,9.99991 h 9.9999 9.99991 v 9.99991 h -9.99991 v 9.9999 h -9.9999 v -9.9999 z m 9.9999,19.99981 h 9.99991 9.99991 v 10.00043 h -9.99991 v 9.9999 h -9.99991 v -9.9999 z m 19.99982,0 v -9.9999 h 10.00042 v 9.9999 z m -9.99991,-19.99981 v -9.99991 h 9.99991 v 9.99991 z m 9.99991,-30.00023 h 10.00042 9.99991 v 10.00042 h -9.99991 -10.00042 z M 139.8271,57.965577 v -9.99991 h 9.99991 v 9.99991 z m 30.00024,-9.99991 v 9.99991 h -9.99991 v -9.99991 z M 29.827102,67.965997 v 9.99991 h -9.99991 v -9.99991 z m 0,9.99991 h 9.9999 v 9.999911 h -9.9999 z m 0,9.999911 v 9.9999 h -9.99991 v -9.9999 z M 179.82724,137.96586 v 9.99991 h -9.9999 v -9.99991 z m -129.999808,0 v 9.99991 h -10.00043 v -9.99991 z m -20.00033,0 v 9.99991 h -9.99991 v -9.99991 z m 40.00014,19.99982 v 9.9999 h -9.99991 -9.9999 -10.00043 v -9.9999 h 10.00043 9.9999 z m 0,9.9999 h 9.99991 v 10.00043 h -9.99991 z"
       inkscape:label="2a_3k" />
    <path
       id="4b_1k"
       style="fill:#aa0000;fill-opacity:1;stroke:none;stroke-width:1.29188"
       d="m 139.82709,47.96567 v 9.999906 h -9.9999 V 47.96567 Z m -90.000188,0 v 9.999906 h -9.99991 V 47.96567 Z m 50.000048,9.999906 v 9.999907 h -9.999908 v -9.999907 z m 30.00024,30.000236 v 9.999907 h -9.99991 -9.99991 -9.999903 v -9.999907 h 9.999903 9.99991 z m -59.999958,0 v 9.999907 h -9.99991 V 87.965812 Z M 159.8269,107.96563 v 9.9999 h -9.9999 v -9.9999 z m -59.999433,9.9999 v 9.99991 h -9.999905 -9.99991 v -9.99991 h 9.99991 z m -20.000325,5.2e-4 v 9.9999 h -9.99991 v -9.9999 z m 59.999948,9.9999 v 9.99991 h -9.9999 v -9.99991 z m -69.999858,19.99982 v 9.9999 h -9.99991 -9.9999 v -9.9999 h 9.9999 z m 0,9.9999 h 9.99991 9.9999 v 9.99991 h -9.9999 -9.99991 z m -20.00033,-9.9999 v 9.9999 h -9.99991 v -9.9999 z m 90.000188,9.9999 v 9.99991 h -9.9999 v -9.99991 z"
       inkscape:label="4b_1k" />
    <path
       id="2b_3w"
       style="fill:#ff0000;fill-opacity:1;stroke:none;stroke-width:1.29188"
       d="m 59.826812,47.96567 v 9.999906 h -9.99991 V 47.96567 Z m 50.000558,9.999906 v 9.999907 h -9.999903 v -9.999907 z m 19.99982,20.00033 v 9.999906 h -9.99991 v -9.999906 z m -50.000048,0 v 9.999906 h -9.99991 v -9.999906 z m 89.999668,29.999724 v 9.9999 h -9.99991 v -9.9999 z m -69.999343,0 v 9.9999 H 89.827042 v -9.9999 z m -30.000235,30.00023 v 9.99991 h -9.99991 v -9.99991 z m 19.99981,9.99991 v 9.9999 h -9.9999 v -9.9999 z m 59.999958,9.9999 v 9.99991 h -9.99991 v -9.99991 z"
       inkscape:label="2b_3w" />
    <path
       id="5b"
       style="fill:#d40000;fill-opacity:1;stroke:none;stroke-width:1.29188"
       d="m 119.82728,77.965906 v 9.999906 h -9.99991 v -9.999906 z m -50.000048,0 v 9.999906 h -9.99991 v -9.999906 z m 0,9.999906 h 9.99991 v 9.999907 h -9.99991 z m 79.999768,0 v 9.999907 h -9.99991 -9.9999 v -9.999907 h 9.9999 z M 89.827042,107.96563 v 9.9999 h -9.9999 v -9.9999 z m 20.000328,9.9999 v 9.99991 h -9.999903 v -9.99991 z m -50.000048,20.00033 v 9.99991 h -9.9999 v -9.99991 z m 39.999628,9.99991 v 9.9999 h -9.999908 v -9.9999 z m -19.999808,0 v 9.9999 h -9.99991 v -9.9999 z"
       inkscape:label="5b" />
  </g>
</svg>
